<svg xmlns="http://www.w3.org/2000/svg" viewBox="0 0 640 360"><circle cx="505" cy="112" r="92" fill="#eadcc0" opacity=".55"/><circle cx="150" cy="268" r="86" fill="#f3ead8" opacity=".5"/><circle cx="570" cy="300" r="44" fill="#dcc69c" opacity=".5"/><path d="M60 90c30-40 90-40 110 0" stroke="#dcc69c" stroke-width="3" fill="none" stroke-linecap="round" opacity=".6"/><path d="M305 70 Q320 40 335 70 L340 92 H300Z" fill="#d2a23c"/><rect x="288" y="92" width="64" height="22" rx="6" fill="#b4654a"/><rect x="280" y="114" width="80" height="190" rx="26" fill="#fff" stroke="#d2a23c" stroke-width="5"/><rect x="285" y="190" width="70" height="108" rx="22" fill="#f6ecd6"/><line x1="336" y1="150" x2="352" y2="150" stroke="#d2a23c" stroke-width="3"/><line x1="336" y1="180" x2="352" y2="180" stroke="#d2a23c" stroke-width="3"/><line x1="336" y1="210" x2="352" y2="210" stroke="#d2a23c" stroke-width="3"/><line x1="336" y1="240" x2="352" y2="240" stroke="#d2a23c" stroke-width="3"/><line x1="336" y1="270" x2="352" y2="270" stroke="#d2a23c" stroke-width="3"/><g transform="translate(450 260) rotate(-40) scale(1)"><path d="M0 0C20-30 60-30 80 0C60 30 20 30 0 0Z" fill="#8fae98"/><path d="M0 0H70" stroke="#fff" stroke-width="2" opacity=".6"/></g><g transform="translate(160 130) rotate(20) scale(0.8)"><path d="M0 0C20-30 60-30 80 0C60 30 20 30 0 0Z" fill="#a9c3b0"/><path d="M0 0H70" stroke="#fff" stroke-width="2" opacity=".6"/></g></svg>