<svg xmlns="http://www.w3.org/2000/svg" viewBox="0 0 640 360"><circle cx="505" cy="112" r="92" fill="#eadcc0" opacity=".55"/><circle cx="150" cy="268" r="86" fill="#f3ead8" opacity=".5"/><circle cx="570" cy="300" r="44" fill="#dcc69c" opacity=".5"/><path d="M60 90c30-40 90-40 110 0" stroke="#dcc69c" stroke-width="3" fill="none" stroke-linecap="round" opacity=".6"/><rect x="240" y="120" width="70" height="150" rx="14" fill="#fff" stroke="#a8741f" stroke-width="5"/><rect x="255" y="100" width="40" height="24" rx="6" fill="#a8741f"/><rect x="248" y="190" width="54" height="72" rx="8" fill="#f3ead8"/><rect x="340" y="110" width="120" height="160" rx="12" fill="#fff" stroke="#a8741f" stroke-width="5"/><path d="M360 150 H440 M360 180 H440 M360 210 H420" stroke="#dcc69c" stroke-width="8" stroke-linecap="round"/><g transform="translate(120 150) rotate(-30) scale(1)"><path d="M0 0C20-30 60-30 80 0C60 30 20 30 0 0Z" fill="#8fae98"/><path d="M0 0H70" stroke="#fff" stroke-width="2" opacity=".6"/></g><g transform="translate(490 290) rotate(-20) scale(0.8)"><path d="M0 0C20-30 60-30 80 0C60 30 20 30 0 0Z" fill="#a9c3b0"/><path d="M0 0H70" stroke="#fff" stroke-width="2" opacity=".6"/></g></svg>