<svg xmlns="http://www.w3.org/2000/svg" viewBox="0 0 640 360"><circle cx="505" cy="112" r="92" fill="#d8d0ec" opacity=".55"/><circle cx="150" cy="268" r="86" fill="#e6e0f3" opacity=".5"/><circle cx="570" cy="300" r="44" fill="#c6badf" opacity=".5"/><path d="M60 90c30-40 90-40 110 0" stroke="#c6badf" stroke-width="3" fill="none" stroke-linecap="round" opacity=".6"/><rect x="190" y="130" width="260" height="150" rx="14" fill="none" stroke="#7d6aa8" stroke-width="6"/><line x1="220" y1="134" x2="220" y2="226" stroke="#7d6aa8" stroke-width="4" opacity=".6"/><line x1="248" y1="134" x2="248" y2="226" stroke="#7d6aa8" stroke-width="4" opacity=".6"/><line x1="276" y1="134" x2="276" y2="226" stroke="#7d6aa8" stroke-width="4" opacity=".6"/><line x1="304" y1="134" x2="304" y2="226" stroke="#7d6aa8" stroke-width="4" opacity=".6"/><line x1="332" y1="134" x2="332" y2="226" stroke="#7d6aa8" stroke-width="4" opacity=".6"/><line x1="360" y1="134" x2="360" y2="226" stroke="#7d6aa8" stroke-width="4" opacity=".6"/><line x1="388" y1="134" x2="388" y2="226" stroke="#7d6aa8" stroke-width="4" opacity=".6"/><line x1="416" y1="134" x2="416" y2="226" stroke="#7d6aa8" stroke-width="4" opacity=".6"/><rect x="196" y="226" width="248" height="22" rx="6" fill="#ebe7f4" stroke="#7d6aa8" stroke-width="3"/><line x1="190" y1="280" x2="190" y2="306" stroke="#7d6aa8" stroke-width="6" stroke-linecap="round"/><line x1="450" y1="280" x2="450" y2="306" stroke="#7d6aa8" stroke-width="6" stroke-linecap="round"/><path d="M520 70 a36 36 0 1 0 30 58 a28 28 0 1 1 -30 -58Z" fill="#d2a23c"/><circle cx="120" cy="90" r="4" fill="#7d6aa8"/><circle cx="150" cy="60" r="3" fill="#7d6aa8"/><circle cx="470" cy="190" r="3" fill="#7d6aa8"/></svg>