<svg xmlns="http://www.w3.org/2000/svg" viewBox="0 0 640 360"><circle cx="505" cy="112" r="92" fill="#efcdbd" opacity=".55"/><circle cx="150" cy="268" r="86" fill="#f3d9cc" opacity=".5"/><circle cx="570" cy="300" r="44" fill="#e7b9a4" opacity=".5"/><path d="M60 90c30-40 90-40 110 0" stroke="#e7b9a4" stroke-width="3" fill="none" stroke-linecap="round" opacity=".6"/><rect x="220" y="60" width="200" height="250" rx="12" fill="#fff" stroke="#b4654a" stroke-width="5"/><rect x="248" y="95" width="144" height="9" rx="4" fill="#f3d9cc"/><rect x="248" y="120" width="120" height="9" rx="4" fill="#f3d9cc"/><rect x="248" y="145" width="136" height="9" rx="4" fill="#f3d9cc"/><rect x="248" y="170" width="100" height="9" rx="4" fill="#f3d9cc"/><rect x="248" y="195" width="130" height="9" rx="4" fill="#f3d9cc"/><path d="M250 262 c14 -20 26 12 40 -6 s24 8 36 -4" stroke="#97503a" stroke-width="3.5" fill="none" stroke-linecap="round"/><g transform="translate(430 250) rotate(-45)"><rect x="-8" y="-90" width="16" height="90" rx="4" fill="#d2a23c"/><path d="M-8 0 L0 18 L8 0Z" fill="#2c2622"/></g><g transform="translate(120 150) rotate(-30) scale(1)"><path d="M0 0C20-30 60-30 80 0C60 30 20 30 0 0Z" fill="#8fae98"/><path d="M0 0H70" stroke="#fff" stroke-width="2" opacity=".6"/></g></svg>