<svg xmlns="http://www.w3.org/2000/svg" viewBox="0 0 640 360"><circle cx="505" cy="112" r="92" fill="#c6dbe7" opacity=".55"/><circle cx="150" cy="268" r="86" fill="#d9e8f0" opacity=".5"/><circle cx="570" cy="300" r="44" fill="#b0cad9" opacity=".5"/><path d="M60 90c30-40 90-40 110 0" stroke="#b0cad9" stroke-width="3" fill="none" stroke-linecap="round" opacity=".6"/><path d="M320 285 C230 225 190 180 190 135 C190 95 222 70 258 70 C287 70 308 88 320 110 C332 88 353 70 382 70 C418 70 450 95 450 135 C450 180 410 225 320 285Z" fill="#e9a79a" opacity=".9"/><path d="M320 285 C230 225 190 180 190 135 C190 95 222 70 258 70" fill="none" stroke="#b4654a" stroke-width="4" stroke-linecap="round"/><path d="M520 70 a36 36 0 1 0 30 58 a28 28 0 1 1 -30 -58Z" fill="#6f96b0"/><circle cx="110" cy="100" r="4" fill="#6f96b0"/><circle cx="140" cy="70" r="3" fill="#6f96b0"/><circle cx="560" cy="170" r="3" fill="#6f96b0"/><g transform="translate(120 240) rotate(-20) scale(1)"><path d="M0 0C20-30 60-30 80 0C60 30 20 30 0 0Z" fill="#8fae98"/><path d="M0 0H70" stroke="#fff" stroke-width="2" opacity=".6"/></g></svg>