<svg xmlns="http://www.w3.org/2000/svg" viewBox="0 0 640 360"><circle cx="505" cy="112" r="92" fill="#c9dccf" opacity=".55"/><circle cx="150" cy="268" r="86" fill="#dbe8df" opacity=".5"/><circle cx="570" cy="300" r="44" fill="#b3cdbb" opacity=".5"/><path d="M60 90c30-40 90-40 110 0" stroke="#b3cdbb" stroke-width="3" fill="none" stroke-linecap="round" opacity=".6"/><ellipse cx="320" cy="90" rx="110" ry="30" fill="#e7f0ea" stroke="#5f8570" stroke-width="4"/><path d="M210 90 V250 A110 30 0 0 0 430 250 V90" fill="#e7f0ea" stroke="#5f8570" stroke-width="4" opacity=".9"/><ellipse cx="320" cy="90" rx="110" ry="30" fill="#f6faf7" stroke="#5f8570" stroke-width="4"/><path d="M215 250 A110 30 0 0 0 425 250" fill="none" stroke="#b4654a" stroke-width="8" stroke-linecap="round"/><path d="M260 88 Q320 60 380 88" stroke="#6f96b0" stroke-width="5" fill="none" stroke-linecap="round"/><path d="M320 130 V200 M300 180 L320 205 L340 180" stroke="#5f8570" stroke-width="4" fill="none" stroke-linecap="round" stroke-linejoin="round" opacity=".7"/><g transform="translate(470 250) rotate(-60) scale(1)"><path d="M0 0C20-30 60-30 80 0C60 30 20 30 0 0Z" fill="#8fae98"/><path d="M0 0H70" stroke="#fff" stroke-width="2" opacity=".6"/></g><g transform="translate(110 130) rotate(20) scale(0.9)"><path d="M0 0C20-30 60-30 80 0C60 30 20 30 0 0Z" fill="#a9c3b0"/><path d="M0 0H70" stroke="#fff" stroke-width="2" opacity=".6"/></g></svg>