<svg xmlns="http://www.w3.org/2000/svg" viewBox="0 0 760 370"><rect width="760" height="380" fill="#fff"/><path d="M280 80 V300 A100 28 0 0 0 480 300 V80" fill="#e7f0ea" stroke="#5f8570" stroke-width="3"/><ellipse cx="380" cy="80" rx="100" ry="28" fill="#dbe8f0" stroke="#6f96b0" stroke-width="4"/><path d="M280 300 A100 28 0 0 0 480 300" fill="none" stroke="#b4654a" stroke-width="8" stroke-linecap="round"/><path d="M280 300 A100 28 0 0 1 480 300" fill="none" stroke="#b4654a" stroke-width="3" stroke-dasharray="5 6" opacity=".6"/><path d="M470 110 V285" stroke="#8a6fb0" stroke-width="10" stroke-linecap="round" opacity=".75"/><path d="M300 150 Q380 175 460 150 M300 200 Q380 225 460 200 M300 250 Q380 275 460 250" stroke="#5f8570" stroke-width="2.5" fill="none" opacity=".5"/><circle cx="280" cy="80" r="5" fill="#6f96b0"/><line x1="280" y1="80" x2="265" y2="80" stroke="#6f96b0" stroke-width="1.5"/><text x="80" y="76" font-family="Inter, Segoe UI, Arial, sans-serif" font-size="16" font-weight="700" fill="#6f96b0" text-anchor="start">Le couvercle</text><text x="80" y="96" font-family="Inter, Segoe UI, Arial, sans-serif" font-size="14" font-weight="500" fill="#4a423c" text-anchor="start">le diaphragme respiratoire</text><circle cx="290" cy="200" r="5" fill="#5f8570"/><line x1="290" y1="200" x2="265" y2="200" stroke="#5f8570" stroke-width="1.5"/><text x="80" y="196" font-family="Inter, Segoe UI, Arial, sans-serif" font-size="16" font-weight="700" fill="#5f8570" text-anchor="start">La paroi circulaire</text><text x="80" y="216" font-family="Inter, Segoe UI, Arial, sans-serif" font-size="14" font-weight="500" fill="#4a423c" text-anchor="start">le muscle transverse</text><circle cx="300" cy="318" r="5" fill="#b4654a"/><line x1="300" y1="318" x2="265" y2="320" stroke="#b4654a" stroke-width="1.5"/><text x="80" y="316" font-family="Inter, Segoe UI, Arial, sans-serif" font-size="16" font-weight="700" fill="#b4654a" text-anchor="start">Le fond</text><text x="80" y="336" font-family="Inter, Segoe UI, Arial, sans-serif" font-size="14" font-weight="500" fill="#4a423c" text-anchor="start">le plancher pelvien</text><circle cx="476" cy="200" r="5" fill="#8a6fb0"/><line x1="476" y1="200" x2="550" y2="200" stroke="#8a6fb0" stroke-width="1.5"/><text x="560" y="196" font-family="Inter, Segoe UI, Arial, sans-serif" font-size="16" font-weight="700" fill="#8a6fb0" text-anchor="start">L'arrière</text><text x="560" y="216" font-family="Inter, Segoe UI, Arial, sans-serif" font-size="14" font-weight="500" fill="#4a423c" text-anchor="start">les muscles multifides</text></svg>