<svg xmlns="http://www.w3.org/2000/svg" viewBox="0 0 640 360"><circle cx="505" cy="112" r="92" fill="#efc6cd" opacity=".55"/><circle cx="150" cy="268" r="86" fill="#f5d8dc" opacity=".5"/><circle cx="570" cy="300" r="44" fill="#e3aab4" opacity=".5"/><path d="M60 90c30-40 90-40 110 0" stroke="#e3aab4" stroke-width="3" fill="none" stroke-linecap="round" opacity=".6"/><rect x="170" y="80" width="190" height="110" rx="45.833333333333336" fill="#d48a98"/><path d="M200 186 l-16 26 l40 -22Z" fill="#d48a98"/><rect x="290" y="170" width="180" height="100" rx="41.66666666666667" fill="#fff"/><path d="M440 266 l16 26 l-40 -22Z" fill="#fff"/><path d="M290 170 m0 0" /><circle cx="345" cy="220" r="8" fill="#d48a98"/><circle cx="380" cy="220" r="8" fill="#d48a98"/><circle cx="415" cy="220" r="8" fill="#d48a98"/><rect x="200" y="112" width="120" height="10" rx="5" fill="#fff" opacity=".85"/><rect x="200" y="136" width="90" height="10" rx="5" fill="#fff" opacity=".85"/><g transform="translate(480 110) rotate(20) scale(1)"><path d="M0 0C20-30 60-30 80 0C60 30 20 30 0 0Z" fill="#8fae98"/><path d="M0 0H70" stroke="#fff" stroke-width="2" opacity=".6"/></g><g transform="translate(130 260) rotate(-30) scale(0.8)"><path d="M0 0C20-30 60-30 80 0C60 30 20 30 0 0Z" fill="#a9c3b0"/><path d="M0 0H70" stroke="#fff" stroke-width="2" opacity=".6"/></g></svg>