<svg xmlns="http://www.w3.org/2000/svg" viewBox="0 0 640 360"><circle cx="505" cy="112" r="92" fill="#c6dbe7" opacity=".55"/><circle cx="150" cy="268" r="86" fill="#d9e8f0" opacity=".5"/><circle cx="570" cy="300" r="44" fill="#b0cad9" opacity=".5"/><path d="M60 90c30-40 90-40 110 0" stroke="#b0cad9" stroke-width="3" fill="none" stroke-linecap="round" opacity=".6"/><line x1="320" y1="180" x2="190" y2="110" stroke="#6f96b0" stroke-width="3" opacity=".6"/><line x1="320" y1="180" x2="450" y2="110" stroke="#6f96b0" stroke-width="3" opacity=".6"/><line x1="320" y1="180" x2="170" y2="250" stroke="#6f96b0" stroke-width="3" opacity=".6"/><line x1="320" y1="180" x2="470" y2="250" stroke="#6f96b0" stroke-width="3" opacity=".6"/><line x1="320" y1="180" x2="320" y2="300" stroke="#6f96b0" stroke-width="3" opacity=".6"/><line x1="320" y1="180" x2="320" y2="70" stroke="#6f96b0" stroke-width="3" opacity=".6"/><path d="M190 110 L320 70 L450 110 L470 250 L320 300 L170 250Z" fill="none" stroke="#6f96b0" stroke-width="2" stroke-dasharray="5 7" opacity=".6"/><circle cx="320" cy="180" r="26" fill="#b4654a"/><circle cx="320" cy="173.5" r="8.32" fill="#fff" opacity=".9"/><circle cx="190" cy="110" r="18" fill="#6f96b0"/><circle cx="190" cy="105.5" r="5.76" fill="#fff" opacity=".9"/><circle cx="450" cy="110" r="18" fill="#5f8570"/><circle cx="450" cy="105.5" r="5.76" fill="#fff" opacity=".9"/><circle cx="170" cy="250" r="18" fill="#7d6aa8"/><circle cx="170" cy="245.5" r="5.76" fill="#fff" opacity=".9"/><circle cx="470" cy="250" r="18" fill="#d2a23c"/><circle cx="470" cy="245.5" r="5.76" fill="#fff" opacity=".9"/><circle cx="320" cy="300" r="16" fill="#6f96b0"/><circle cx="320" cy="296.0" r="5.12" fill="#fff" opacity=".9"/><circle cx="320" cy="70" r="16" fill="#5f8570"/><circle cx="320" cy="66.0" r="5.12" fill="#fff" opacity=".9"/><g transform="translate(520 180) rotate(20) scale(0.8)"><path d="M0 0C20-30 60-30 80 0C60 30 20 30 0 0Z" fill="#8fae98"/><path d="M0 0H70" stroke="#fff" stroke-width="2" opacity=".6"/></g></svg>