<svg xmlns="http://www.w3.org/2000/svg" viewBox="0 0 640 360"><circle cx="505" cy="112" r="92" fill="#efc6cd" opacity=".55"/><circle cx="150" cy="268" r="86" fill="#f5d8dc" opacity=".5"/><circle cx="570" cy="300" r="44" fill="#e3aab4" opacity=".5"/><path d="M60 90c30-40 90-40 110 0" stroke="#e3aab4" stroke-width="3" fill="none" stroke-linecap="round" opacity=".6"/><circle cx="250" cy="130" r="34" fill="#d48a98"/><path d="M190 290 C190 210 310 210 310 290Z" fill="#d48a98"/><circle cx="390" cy="130" r="34" fill="#b4654a"/><path d="M330 290 C330 210 450 210 450 290Z" fill="#b4654a"/><path d="M300 225 C315 205 335 205 345 225" stroke="#fff" stroke-width="10" fill="none" stroke-linecap="round"/><g transform="translate(320 80) scale(0.6)"><path d="M0 30 C-30 10 -40 -5 -40 -18 C-40 -32 -29 -40 -17 -40 C-8 -40 -3 -34 0 -27 C3 -34 8 -40 17 -40 C29 -40 40 -32 40 -18 C40 -5 30 10 0 30Z" fill="#e9a79a"/></g><g transform="translate(110 150) rotate(-30) scale(1)"><path d="M0 0C20-30 60-30 80 0C60 30 20 30 0 0Z" fill="#8fae98"/><path d="M0 0H70" stroke="#fff" stroke-width="2" opacity=".6"/></g></svg>